<?xml version="1.0" encoding="UTF-8"?>
<svg width="12px" height="20px" viewBox="0 0 12 20" version="1.1" xmlns="http://www.w3.org/2000/svg" xmlns:xlink="http://www.w3.org/1999/xlink">
    <!-- Generator: Sketch 53.2 (72643) - https://sketchapp.com -->
    <title>Flash</title>
    <desc>Created with Sketch.</desc>
    <g id="Page-1" stroke="none" stroke-width="1" fill="none" fill-rule="evenodd">
        <g id="Driver-App/SignUp/Personal-Photo-Camera" transform="translate(-181.000000, -44.000000)" fill="#FFFFFF">
            <g id="Icon/Camera/Flash" transform="translate(175.000000, 42.000000)">
                <path d="M7.42336108,13.3333333 L12.3333333,13.3333333 L9.14207616,21.3114763 C9.07370502,21.4824041 9.15684366,21.6763943 9.32777149,21.7447654 C9.46303551,21.798871 9.6177661,21.7588674 9.70985673,21.6459821 L17.7790188,11.7547512 C18.0117614,11.4694537 17.9691574,11.0494993 17.6838599,10.8167567 C17.5648666,10.7196831 17.4160087,10.6666667 17.2624421,10.6666667 L12.3333333,10.6666667 L15.2457062,3.25335394 C15.3130209,3.08200732 15.2286864,2.88853406 15.0573398,2.82121931 C14.9236449,2.7686963 14.7713393,2.80772621 14.6793819,2.91807501 L6.91121356,12.2398771 C6.67550417,12.5227283 6.71372021,12.9431048 6.99657148,13.1788142 C7.11638148,13.2786559 7.26740341,13.3333333 7.42336108,13.3333333 Z" id="Flash"></path>
            </g>
        </g>
    </g>
</svg>