<?xml version="1.0" encoding="UTF-8"?>
<svg width="221px" height="127px" viewBox="0 0 221 127" version="1.1" xmlns="http://www.w3.org/2000/svg" xmlns:xlink="http://www.w3.org/1999/xlink">
    <!-- Generator: Sketch 53.2 (72643) - https://sketchapp.com -->
    <title>Group 2</title>
    <desc>Created with Sketch.</desc>
    <g id="Page-1" stroke="none" stroke-width="1" fill="none" fill-rule="evenodd">
        <g id="Driver-App/SignUp/Complete" transform="translate(-65.000000, -318.000000)">
            <g id="Group-2" transform="translate(67.000000, 318.000000)">
                <g id="np_tire_1226334_6FDAA0" transform="translate(90.000000, 0.000000)" fill="#FFFFFF" fill-rule="nonzero">
                    <path d="M128.335052,65.8825729 L128.335052,60.9888396 C128.335052,60.1930258 127.670103,59.4023979 126.740239,59.4023979 C126.740239,58.875295 126.605175,58.3430327 126.605175,57.8159563 C127.405188,57.6816008 128.070189,56.8909465 127.935072,55.9659896 L127.135059,51.2013729 C126.999995,50.4055592 126.205168,49.7440479 125.405129,49.8784563 C125.270065,49.3513533 125.140187,48.819091 125.005123,48.2920146 C125.805135,48.0284631 126.199955,47.1034533 125.935013,46.3076396 L124.469999,41.6774313 C124.205057,40.8816175 123.275166,40.48887 122.475153,40.618066 C122.210211,40.0909631 122.075147,39.5587008 121.810205,39.0316244 C122.610218,38.6337175 122.87516,37.7087077 122.475153,36.912841 L120.215393,32.5461577 C119.815386,31.750344 118.885496,31.4867925 118.08543,31.8846994 C117.820488,31.3575965 117.555546,30.9596896 117.155539,30.4273744 C117.820488,29.9002715 117.955552,28.9700494 117.420481,28.1794744 L114.495772,24.2107244 C113.965888,23.549266 113.030758,23.4149106 112.365809,23.8128175 C111.965803,23.4149106 111.565796,23.0170038 111.300854,22.6242563 C111.830738,21.9627979 111.830738,21.0378146 111.300854,20.3763563 L107.840994,16.9346563 C107.176046,16.2731979 106.246182,16.2731979 105.581234,16.9346563 C105.181227,16.5367494 104.781221,16.1388425 104.386401,15.875291 C104.916285,15.2138327 104.651343,14.154441 103.986395,13.7565077 L99.9967039,10.976266 C99.3317555,10.4491631 98.266774,10.5783592 97.7369431,11.2398175 C97.207059,10.976266 96.8070526,10.7127146 96.2719287,10.3148077 C96.6719351,9.51899396 96.2719287,8.59395771 95.6069802,8.19602438 L91.2172565,5.94812438 C90.4172437,5.5502175 89.4873266,5.81376896 89.0872936,6.60958271 C88.5574095,6.34603125 88.0223388,6.21167583 87.4924812,5.94812438 C87.7574233,5.15231063 87.2275392,4.22727438 86.4275264,3.96374938 L81.7728872,2.50642438 C80.9728744,2.24287292 80.0429573,2.64077979 79.7780419,3.43143417 C79.2481577,3.29707875 78.713087,3.16788271 78.1832295,3.03352729 C78.3182938,2.23771354 77.6533454,1.44708563 76.8533326,1.31267729 L72.0635759,0.516863542 C71.2635631,0.382508125 70.4687635,0.914770417 70.203848,1.83978021 C69.6739639,1.83978021 69.1388932,1.70542479 68.6090357,1.70542479 C68.6090357,0.909611042 67.9440872,0.118983125 67.0142233,0.118983125 L62.2244666,0.118983125 C61.4244538,0.118983125 60.6296542,0.780441458 60.6296542,1.70542479 C60.0997701,1.70542479 59.5646994,1.83978021 59.0348419,1.83978021 C58.8997775,1.04396646 58.1049513,0.382455208 57.175114,0.516863542 L52.3853573,1.31267729 C51.5853445,1.44703271 50.9203429,2.23768708 51.0554604,3.03352729 C50.5255763,3.16788271 49.9905056,3.29707875 49.460648,3.43143417 C49.195706,2.63562042 48.2658155,2.24287292 47.4658027,2.50642438 L42.8111635,3.96374938 C42.0111507,4.22730083 41.4812666,5.15231063 41.7462087,5.94812438 C41.2163245,6.21167583 40.6812538,6.34603125 40.1513963,6.60958271 C39.7513899,5.81376896 38.8214994,5.5502175 38.0214334,5.94812438 L33.6317097,8.19602438 C32.8316969,8.59393125 32.5667548,9.51894104 32.9667612,10.3148077 C32.4368771,10.5783592 32.0368707,10.8419106 31.5017468,11.2398175 C30.9718627,10.5783592 30.0367324,10.4440038 29.241986,10.976266 L25.2522953,13.7565077 C24.5873468,14.2836106 24.4522825,15.2138327 24.8522889,15.875291 C24.4522825,16.2731979 24.0522761,16.5367494 23.6574563,16.9346563 C22.9925078,16.4075533 22.0626439,16.4075533 21.3976955,16.9346563 L17.9378357,20.3763563 C17.2728872,21.0378146 17.2728872,21.9627979 17.9378357,22.6242563 C17.5378293,23.0221631 17.1378229,23.42007 16.8728808,23.8128175 C16.2079324,23.2857146 15.1429509,23.549266 14.7429179,24.2107244 L11.8182087,28.1794744 C11.2883245,28.8409327 11.4182023,29.9003244 12.0831507,30.4273744 C11.8182087,30.9544773 11.5532666,31.3523842 11.1532602,31.8846994 C10.3532474,31.4867925 9.42333031,31.8846994 9.02329732,32.5461577 L6.76353649,36.912841 C6.3635301,37.7086548 6.62847216,38.633691 7.42848495,39.0316244 C7.16354289,39.5587273 7.02847856,40.0909896 6.76353649,40.618066 C5.96352371,40.3545146 5.0336066,40.8816175 4.76869113,41.6774313 L3.3036767,46.3076396 C3.03873464,47.1034533 3.43874103,48.0284896 4.23356722,48.2920146 C4.09850289,48.8191175 3.96862515,49.3513798 3.83356082,49.8784563 C3.03354804,49.7441008 2.23874845,50.4055592 2.10363093,51.2013729 L1.30361814,55.9659896 C1.16855381,56.7618033 1.70362454,57.5524313 2.63351505,57.8159563 C2.63351505,58.3430592 2.49845072,58.8753215 2.49845072,59.4023979 C1.69843794,59.4023979 0.903638351,60.0638563 0.903638351,60.9888396 L0.903638351,65.8825729 C0.903638351,66.6783867 1.5685868,67.4690146 2.49845072,67.4690146 C2.49845072,67.9961175 2.63351505,68.5283798 2.63351505,69.0554563 C1.83350227,69.1898117 1.16850062,69.980466 1.30361814,70.9054229 L2.10363093,75.6700396 C2.23869526,76.4658533 3.03352144,77.1273646 3.83356082,76.9929563 C3.96862515,77.5200592 4.09850289,78.0523215 4.23356722,78.5793979 C3.43355443,78.8429494 3.03873464,79.7679592 3.3036767,80.5637729 L4.76869113,85.1939813 C5.0336332,85.989795 5.96352371,86.3825425 6.76353649,86.2533465 C7.02847856,86.7804494 7.16354289,87.3127117 7.42848495,87.8397881 C6.62847216,88.237695 6.3635301,89.1627048 6.76353649,89.9585715 L9.02329732,94.3252548 C9.42330371,95.1210685 10.3531942,95.38462 11.1532602,94.9867131 C11.4182023,95.513816 11.6831443,95.9117229 12.0831507,96.4440381 C11.4182023,96.971141 11.2831379,97.9013631 11.8182087,98.5628215 L14.7429179,102.531571 C15.2728021,103.19303 16.2079324,103.327385 16.8728808,102.929478 C17.2728872,103.327385 17.5378293,103.725292 17.9378357,104.11804 C17.4079515,104.779498 17.4079515,105.704481 17.9378357,106.36594 L21.3976955,109.80764 C22.0626439,110.469098 22.9925078,110.469098 23.6574563,109.80764 C24.0574627,110.205546 24.4574691,110.603453 24.8522889,110.867005 C24.3224047,111.528463 24.5873468,112.587855 25.2522953,112.985788 L29.241986,115.76603 C29.9069344,116.293133 30.9719159,116.163937 31.5017468,115.502478 C32.0316309,115.76603 32.4316373,116.029581 32.9667612,116.427488 C32.5667548,117.223302 32.9667612,118.148338 33.6317097,118.546271 L38.0214334,120.794171 C38.8214462,121.192078 39.7513633,120.928527 40.1513963,120.132713 C40.6812804,120.396265 41.2163511,120.53062 41.7462087,120.794171 C41.4812666,121.589985 42.0111507,122.515021 42.8111635,122.778546 L47.4658027,124.235871 C48.2658155,124.499423 49.1957326,124.101516 49.460648,123.310862 C49.9905322,123.445217 50.5256029,123.574413 51.0554604,123.708769 C50.9203961,124.504582 51.5853445,125.29521 52.3853573,125.429619 L57.175114,126.225432 C57.9751268,126.359788 58.7699264,125.827525 59.0348419,124.902516 C59.564726,124.902516 60.0997967,125.036871 60.6296542,125.036871 C60.6296542,125.832685 61.429667,126.623313 62.2244666,126.623313 L67.0142233,126.623313 C67.9441138,126.623313 68.6090357,125.961854 68.6090357,125.036871 C69.1389198,125.036871 69.6739905,124.902516 70.203848,124.902516 C70.3389124,125.698329 71.1337386,126.359841 72.0635759,126.225432 L76.8533326,125.429619 C77.6533454,125.295263 78.318347,124.504609 78.1832295,123.708769 C78.7131136,123.574413 79.2481843,123.445217 79.7780419,123.310862 C80.0429839,124.106675 80.9728744,124.499423 81.7728872,124.235871 L86.4275264,122.778546 C87.2275392,122.514995 87.7574233,121.589985 87.4924812,120.794171 C88.0223654,120.53062 88.5574361,120.396265 89.0872936,120.132713 C89.4873,120.928527 90.4171905,121.192078 91.2172565,120.794171 L95.6069802,118.546271 C96.406993,118.148365 96.6719351,117.223355 96.2719287,116.427488 C96.8018128,116.163937 97.2018192,115.900385 97.7369431,115.502478 C98.2668272,116.163937 99.2019575,116.298292 99.9967039,115.76603 L103.986395,112.985788 C104.651343,112.458685 104.786407,111.528463 104.386401,110.867005 C104.786407,110.469098 105.186414,110.205546 105.581234,109.80764 C106.246182,110.334743 107.176046,110.334743 107.840994,109.80764 L111.300854,106.36594 C111.965803,105.704481 111.965803,104.779498 111.300854,104.11804 C111.700861,103.720133 112.100867,103.322226 112.365809,102.929478 C113.030758,103.456581 114.095739,103.19303 114.495772,102.531571 L117.420481,98.5628215 C117.950365,97.9013631 117.820488,96.9763798 117.155539,96.4440381 C117.420481,95.9169352 117.685423,95.5190283 118.08543,94.9867131 C118.885442,95.38462 119.81536,94.9867131 120.215393,94.3252548 L122.475153,89.9585715 C122.87516,89.1627577 122.610218,88.2377215 121.810205,87.8397881 C122.075147,87.3126852 122.210211,86.7804229 122.475153,86.2533465 C123.275166,86.5168979 124.205083,85.989795 124.469999,85.1939813 L125.935013,80.5637729 C126.199955,79.7679592 125.799949,78.8429229 125.005123,78.5793979 C125.140187,78.052295 125.270065,77.5200327 125.405129,76.9929563 C126.205142,77.1273117 126.999941,76.4658533 127.135059,75.6700396 L127.935072,70.9054229 C128.070136,70.1096092 127.535065,69.3189813 126.605175,69.0554563 C126.605175,68.5283533 126.740239,67.996091 126.740239,67.4690146 C127.67013,67.4690146 128.335052,66.8075563 128.335052,65.8825729 Z M65.1649485,103.848958 C42.8213505,103.848958 24.6030928,85.8546458 24.6030928,63.5 C24.6030928,41.1453542 42.6923505,23.1510417 65.1649485,23.1510417 C87.5085464,23.1510417 105.726804,41.1453542 105.726804,63.5 C105.726804,85.8546458 87.5085464,103.848958 65.1649485,103.848958 Z" id="Shape"></path>
                    <path d="M65.1649485,28.5776458 C45.7457938,28.5776458 30.0583299,44.1893854 30.0583299,63.5 C30.0583299,82.8172292 45.7524433,98.4223542 65.1649485,98.4223542 C84.5841031,98.4223542 100.271567,82.8106146 100.271567,63.5 C100.271567,44.1827708 84.5827732,28.5776458 65.1649485,28.5776458 Z M71.5495175,63.5 C71.5495175,67.0708167 68.6248082,69.8510583 65.1649485,69.8510583 C61.5752907,69.8510583 58.7803794,66.9417 58.7803794,63.5 C58.7803794,59.9291833 61.7050887,57.1489417 65.1649485,57.1489417 C68.7546062,57.1489417 71.5495175,59.9291833 71.5495175,63.5 Z M60.7752247,36.6434688 L60.7752247,51.4588125 C58.5154639,52.2546263 56.5206186,53.7067125 55.0556041,55.5619708 L40.8270371,50.9317625 C44.8167278,43.5213125 52.1311608,37.9661208 60.7754907,36.6429396 L60.7752247,36.6434688 Z M37.7666784,63.5 C37.7666784,62.042675 37.9017427,60.5906417 38.1666847,59.267725 L52.2662518,63.8979333 C52.2662518,66.4093583 53.0662645,68.7916667 54.3962146,70.7760417 L45.6167672,82.8167 C40.8270105,77.7885583 37.7673167,70.91045 37.7673167,63.4994708 L37.7666784,63.5 Z M65.1652144,90.7547292 C60.6456928,90.7547292 56.5208845,89.695364 52.7961093,87.8453708 L61.5755567,75.8047125 C62.7703893,76.2026194 63.9704351,76.3318154 65.1652144,76.3318154 C66.4951113,76.3318154 67.6898907,76.19746 68.7548722,75.8047125 L77.5343196,87.8453708 C73.8095443,89.6953375 69.6848691,90.7547292 65.1652144,90.7547292 L65.1652144,90.7547292 Z M92.5637505,63.5 C92.5637505,70.91045 89.5039237,77.7888229 84.5843691,82.6822917 L75.8049216,70.6416333 C77.1348186,68.6572583 77.9348845,66.27495 77.9348845,63.763525 L92.0344515,59.1333167 C92.4292713,60.5906417 92.5643357,62.042675 92.5643357,63.5 L92.5637505,63.5 Z M75.2750907,55.5625 C73.8100763,53.7125333 71.8152309,52.2552083 69.5554701,51.4593417 L69.5554701,36.6439979 C78.1998,38.1013229 85.514233,43.5221063 89.5039237,50.9328208 L75.2750907,55.5625 Z" id="Shape"></path>
                </g>
                <path d="M87.8672943,85.5 L0.188089623,85.5" id="Line-22" stroke="#FFFFFF" stroke-width="4" stroke-linecap="round"></path>
                <path d="M84.9234221,72.6627604 L17.4536546,72.6627604" id="Line-22-Copy" stroke="#FFFFFF" stroke-width="4" stroke-linecap="round"></path>
                <path d="M82.9234221,59.4544271 L35.2944001,59.4544271" id="Line-22-Copy-2" stroke="#FFFFFF" stroke-width="4" stroke-linecap="round"></path>
                <path d="M86.9234221,46.4544271 L55.2944001,46.4544271" id="Line-22-Copy-2" stroke="#FFFFFF" stroke-width="4" stroke-linecap="round"></path>
            </g>
        </g>
    </g>
</svg>