<?xml version="1.0" encoding="UTF-8"?>
<svg width="168px" height="171px" viewBox="0 0 168 171" version="1.1" xmlns="http://www.w3.org/2000/svg" xmlns:xlink="http://www.w3.org/1999/xlink">
    <!-- Generator: Sketch 53.2 (72643) - https://sketchapp.com -->
    <title>np_person_113116_FFFFFF</title>
    <desc>Created with Sketch.</desc>
    <defs>
        <circle id="path-1" cx="84.6666667" cy="95.6666667" r="74.6666667"></circle>
    </defs>
    <g id="Page-1" stroke="none" stroke-width="1" fill="none" fill-rule="evenodd">
        <g id="Driver-App/SignUp/Photo1" transform="translate(-104.000000, -272.000000)">
            <g id="Group" transform="translate(103.000000, 272.000000)">
                <g id="np_person_113116_FFFFFF" transform="translate(0.333333, 0.000000)">
                    <mask id="mask-2" fill="white">
                        <use xlink:href="#path-1"></use>
                    </mask>
                    <use id="Mask" fill="#004991" xlink:href="#path-1"></use>
                    <g mask="url(#mask-2)" fill="#FFFFFF" fill-rule="nonzero" id="Shape">
                        <g transform="translate(-7.500000, -8.166667)">
                            <path d="M91.6279885,0.000830176326 C40.6978866,0.221856614 -0.210289104,41.5727778 0.000813361749,92.4941699 C0.221839819,143.415562 41.5727648,184.554423 92.4941615,184.332439 C143.415558,184.111413 184.554423,142.760492 184.332439,91.8390994 C183.898874,40.6957233 142.549385,-0.212448584 91.6258122,0.000830176326 L91.6279885,0.000830176326 Z M91.6279885,10.2277643 C136.897498,10.0067379 173.672853,46.5700298 173.894837,91.8395347 C173.894837,110.338203 167.799416,127.52673 157.351368,141.461667 C151.255947,138.197197 135.155141,128.837306 128.837301,127.970262 C122.308359,127.103132 111.86031,126.227514 110.338631,123.396521 C108.816909,120.353164 107.07416,109.029367 107.07416,109.029367 C107.07416,109.029367 110.993266,105.764897 111.426788,100.545225 C111.860353,95.3255543 112.735972,90.751813 112.735972,90.751813 C112.735972,90.751813 116.000443,90.0972213 116.433965,87.0538205 C116.86753,84.0104632 118.389252,78.5696785 119.0438,77.260408 C119.698392,75.7386859 120.999088,70.0768312 116.867486,71.3861016 C118.389209,65.0782735 119.477322,53.7544771 118.610235,50.7111198 C117.955643,48.1012842 116.867486,43.7486565 114.691129,42.0058643 C113.169406,39.8295504 111.647771,38.0867583 110.338501,37.2197148 C106.419394,34.6098792 97.5017296,32.6459736 92.927988,31.7789301 C88.3542463,30.9117996 83.5680964,32.6460606 77.6937895,34.3887657 C71.8194825,36.1315144 70.510212,39.8295504 70.510212,39.8295504 C70.5187126,39.8295504 68.121272,39.8295504 65.9449579,41.3512726 C63.7686439,43.0940212 63.1140086,47.8802142 62.2469651,50.9235716 C61.3798345,53.9669289 62.6805303,65.0696118 64.2022527,71.5985534 C60.070738,70.28937 61.3713033,76.1722946 62.0259386,77.4728598 C62.6805303,78.994582 64.2022527,84.4353232 64.6357744,87.2662722 C65.0693397,90.3096296 68.3337673,90.7518566 68.3337673,90.7518566 C68.3337673,90.7518566 69.2008979,95.3255978 69.6429508,100.545269 C70.0765161,105.76494 74.2166925,109.029411 74.2166925,109.029411 C74.2166925,109.029411 72.6949701,120.565616 70.9522214,123.396565 C69.2094726,126.227514 58.9824939,127.315671 52.4535517,128.182714 C46.791653,129.049845 33.0878386,136.666856 26.1157988,140.807076 C16.1012719,127.315671 10.0145567,110.560665 10.0145567,92.495084 C10.0145567,47.225579 46.5788095,10.4502271 91.6263345,10.2282431 L91.6279885,10.2277643 Z"></path>
                        </g>
                    </g>
                    <circle id="Oval" stroke="#FFFFFF" stroke-width="6" cx="84.6666667" cy="84" r="81"></circle>
                </g>
            </g>
        </g>
    </g>
</svg>