<?xml version="1.0" encoding="UTF-8"?>
<svg width="142px" height="166px" viewBox="0 0 142 166" version="1.1" xmlns="http://www.w3.org/2000/svg" xmlns:xlink="http://www.w3.org/1999/xlink">
    <!-- Generator: Sketch 53.2 (72643) - https://sketchapp.com -->
    <title>np_truck_839908_FFFFFF</title>
    <desc>Created with Sketch.</desc>
    <g id="Page-1" stroke="none" stroke-width="1" fill="none" fill-rule="evenodd">
        <g id="Driver-App/SignUp/Vehicle-Photo1" transform="translate(-116.000000, -279.000000)" fill="#FFFFFF" fill-rule="nonzero">
            <g id="np_truck_839908_FFFFFF" transform="translate(115.000000, 278.000000)">
                <path d="M18.15912,1.6734312 L18.1000579,13.2825672 L14.8254019,13.2825672 C13.0995379,13.2825672 11.4916099,14.8903776 11.4916099,16.6163592 L11.4916099,49.5342792 C11.550672,50.6630376 12.2069203,51.8573832 13.2766099,52.3889352 L13.1584841,101.325655 C11.4326201,102.395345 9.88382808,103.766863 8.75503608,105.551863 C5.95934808,109.955311 5.24417208,116.445655 5.12590008,125.192743 C3.27521208,125.671812 1.73314008,126.918607 1.66745208,128.467399 L1.66745208,149.900839 C1.66745208,151.626703 3.21619368,153.175495 4.94210808,153.175495 L9.88366008,153.175495 L9.88366008,163.058599 C9.88366008,164.784463 11.4324185,166.333255 13.1583161,166.333255 L37.7417561,166.333255 C39.4676201,166.333255 41.0755481,164.784514 41.0755481,163.058599 L41.0755481,153.175495 L103.400188,153.175495 L103.400188,163.058599 C103.400188,164.784463 104.948946,166.333255 106.674844,166.333255 L131.317084,166.333255 C133.042948,166.333255 134.59174,164.784514 134.59174,163.058599 L134.59174,153.175495 L139.533292,153.175495 C141.200171,153.175495 142.807948,151.626737 142.807948,149.900839 L142.807948,128.467399 C142.807948,126.741535 141.200138,125.192743 139.533292,125.192743 C139.415166,119.240503 138.817982,110.728951 135.720532,105.551863 C134.591774,103.766863 133.042948,102.395311 131.317084,101.325655 L131.376148,52.2780552 C132.327717,51.6808656 132.924906,50.611176 132.924906,49.5415032 L132.924906,16.6235832 C132.924906,14.8977192 131.376148,13.2897912 129.65025,13.2897912 L126.375594,13.2897912 L126.500282,1.7332392 L119.891834,1.67417712 L119.832772,13.2833131 L116.67622,13.2833131 C115.009341,13.2833131 113.460532,14.8320715 113.401564,16.5579691 L113.28344,19.8917611 L31.1935999,19.8917611 C31.3117258,19.1173819 31.1935999,17.9295211 31.1345378,17.4505531 C31.6726586,15.5474491 30.0057794,13.3424491 28.0369538,13.2833131 L24.6441938,13.2833131 L24.762318,1.73331312 L18.15912,1.6734312 Z M18.1000579,19.8913512 L24.6493699,19.8913512 L24.6493699,23.1660072 C24.6493699,24.8918712 26.1981283,26.4997992 27.9240259,26.4997992 L116.564186,26.4997992 C118.231065,26.4997992 119.779874,24.9510408 119.838842,23.2841112 L119.897906,19.8913512 L126.38825,19.8913512 L126.38825,46.2001512 L119.838938,46.2001512 C118.113074,46.2001512 116.564282,47.7489096 116.564282,49.4748072 C116.32804,56.8575672 116.387092,90.0115272 116.564282,102.218407 C116.564282,103.944271 118.11304,105.434095 119.838938,105.434095 C123.651698,105.493159 128.232386,105.972216 130.194626,109.063231 C131.92049,111.799783 132.931178,117.935647 132.87221,128.468911 C132.87221,130.194775 134.48002,131.802703 136.206002,131.802703 C136.265064,136.567015 136.206002,141.685807 136.206002,146.568391 L8.22360168,146.568391 L8.22360168,131.802703 C9.94946568,131.802703 11.4982577,130.194893 11.4982577,128.468911 C11.4982577,117.929599 12.5679473,111.800119 14.2939457,109.063231 C16.7942897,105.670471 21.1977377,105.493231 24.6496337,105.434095 C26.3754977,105.434095 27.9242897,103.944406 27.9242897,102.218407 C28.1014793,90.1368552 27.9242897,56.0251272 27.9242897,49.5352872 C27.9242897,47.8094232 26.3755313,46.2014952 24.6496337,46.2014952 C21.1387697,46.2605573 19.8261857,46.2014952 18.1003217,46.2014952 L18.1003217,19.8926952 L18.1000579,19.8913512 Z M32.5638499,46.2001512 C31.7894707,46.3773408 31.1922811,47.0926512 31.1922811,47.8670304 C31.1922811,56.0832384 31.1922811,59.3578944 31.133219,70.9015104 C31.133219,71.137752 31.1922811,71.4396312 31.3104086,71.6758896 C32.5572878,74.0581296 33.9879926,75.9020976 35.8319606,77.7462336 C36.7244606,78.461544 37.7942006,79.0587336 39.1657526,79.0587336 C61.1300726,79.0587336 83.0943926,79.1177957 105.060393,79.1177957 C106.431961,79.1177957 107.560737,78.4615541 108.453153,77.7462269 C110.474361,75.9612269 111.727809,73.9334669 113.033841,71.6169149 C113.151965,71.3806733 113.21103,71.2034837 113.21103,70.9606733 C113.270092,62.6853293 113.21103,54.4099853 113.21103,47.8673933 C113.21103,46.9748933 112.436651,46.2005141 111.60322,46.2005141 L32.5508198,46.2005141 L32.5638499,46.2001512 Z M19.8260899,52.8085992 L21.3748483,52.8085992 C21.3748483,61.4973912 21.4929742,86.5597992 21.3748483,99.0606792 C20.8367275,99.1197413 20.2460899,99.1788034 19.7079691,99.2378688 C19.7670312,83.7635568 19.7670312,68.2821888 19.8260933,52.8077088 L19.8260899,52.8085992 Z M123.10745,52.8085992 L124.833314,52.8085992 L124.715188,99.2387592 C124.177067,99.1796971 123.645498,99.120635 123.107378,99.0615696 C123.107378,83.6462256 122.871136,68.2251696 123.107378,52.8094896 L123.10745,52.8085992 Z M49.1740099,87.2754792 C47.3890099,87.4526688 46.6146979,88.4632896 45.8402179,89.7758232 C42.7426339,99.1799592 45.2430283,109.777903 45.89928,118.945663 C47.5070904,125.849455 51.792384,126.801007 57.390144,126.801007 L86.914464,126.801007 C93.522912,127.214438 96.915672,124.536871 98.34636,118.945663 L98.4054238,118.945663 L98.4054238,118.886601 C99.5932342,109.364361 101.384736,98.4712411 98.5826134,89.8343611 C97.867303,88.2265507 96.6795094,87.7540171 95.3079574,87.3340171 C79.2364054,87.3340171 62.9225974,87.3340171 49.1734774,87.274955 L49.1740099,87.2754792 Z M49.1740099,90.6092712 L95.2496899,90.6683333 C96.3784483,92.6895413 96.4965691,95.0126453 96.6803107,97.2176453 L47.5739107,97.2176453 C47.8101523,94.8354053 48.4073419,92.4533333 49.1817211,90.6091973 L49.1740099,90.6092712 Z M47.6843203,100.492375 L96.7907203,100.492375 C96.7907203,101.266754 96.7316582,102.572719 96.6725962,103.826167 L47.9189962,103.826167 L47.6843203,100.492375 Z M48.2224411,107.100823 L96.4367611,107.100823 C96.377699,108.170513 96.3186353,109.181167 96.2005195,110.375479 L48.4582795,110.375479 L48.2224411,107.100823 Z M22.9838011,108.767702 C18.4622491,108.767702 14.8265611,112.396838 14.8265611,116.98391 C14.8265611,121.505462 18.4556971,125.200118 22.9838011,125.200118 C27.5053531,125.200118 31.2000091,121.512014 31.2000091,116.98391 C31.2000091,112.403222 27.5119051,108.767702 22.9838011,108.767702 Z M121.440201,108.767702 C116.918649,108.767702 113.223993,112.396838 113.223993,116.98391 C113.223993,121.505462 116.912097,125.200118 121.440201,125.200118 C125.961753,125.200118 129.656409,121.512014 129.656409,116.98391 C129.656409,112.403222 125.968305,108.767702 121.440201,108.767702 Z M48.8188411,113.709254 L95.7866011,113.709254 C95.6094115,114.778944 95.4912907,115.855118 95.3075323,116.98391 L49.0554523,116.98391 L48.8188411,113.709254 Z M37.7479771,115.317065 C35.0703931,115.317065 32.8655611,117.522065 32.8655611,120.258617 C32.8655611,122.995169 35.0705611,125.200169 37.7479771,125.200169 C40.4845291,125.200169 42.6895291,122.995169 42.6895291,120.258617 C42.6895291,117.522065 40.4845291,115.317065 37.7479771,115.317065 Z M106.680057,115.317065 C104.002473,115.317065 101.797641,117.522065 101.797641,120.258617 C101.797641,122.995169 104.002641,125.200169 106.680057,125.200169 C109.416609,125.200169 111.621609,122.995169 111.621609,120.258617 C111.621609,117.522065 109.416609,115.317065 106.680057,115.317065 Z M49.7112571,120.258617 L94.5924571,120.258617 C93.4046467,124.071377 89.5328011,123.474305 86.9143531,123.474305 L57.3900331,123.474305 C53.5772731,123.651494 50.7815851,123.415243 49.7119291,120.258617 L49.7112571,120.258617 Z M55.7816011,130.141721 L55.7816011,143.299481 L88.5802411,143.299481 L88.5802411,130.141721 L55.7816011,130.141721 Z M16.4326411,153.176201 L34.4657611,153.176201 L34.4657611,159.725513 L16.4326411,159.725513 L16.4326411,153.176201 Z M109.948161,153.176201 L128.046801,153.176201 L128.046801,159.725513 L109.948161,159.725513 L109.948161,153.176201 Z" id="Shape"></path>
            </g>
        </g>
    </g>
</svg>