<svg xmlns="http://www.w3.org/2000/svg" xmlns:xlink="http://www.w3.org/1999/xlink" version="1.1" x="0px" y="0px" viewBox="0 0 100 125" enable-background="new 0 0 100 100" xml:space="preserve"><path d="M27,46.001h22v-22H27V46.001z M31,28.001h14v14H31V28.001z M56.333,24.001h-4v10h4V24.001z M56.333,41.625h8v4h4v-8h-16  v8.209h4V41.625z M48.625,57.375H34.833v4h13.792V57.375z M74.875,39V24.001h-15.25v4h11.25V39H74.875z M59.625,35h5.708v-4h-5.708  V35z M46,68.375v-4H35.625v4H46z M62.083,71h-2.75v4h15.542V63h-4v8h-4.792v-7.813h-14v4h10V71z M34.625,38.75h6v-6h-6V38.75z   M19,45.334c1.104,0,2-0.896,2-2V23.625c0-3.309,2.691-6,6-6h17.917c1.104,0,2-0.896,2-2s-0.896-2-2-2H27c-5.514,0-10,4.486-10,10  v19.709C17,44.438,17.896,45.334,19,45.334z M44.917,82.375H27c-3.309,0-6-2.691-6-6V56.834c0-1.104-0.896-2-2-2s-2,0.896-2,2  v19.541c0,5.514,4.486,10,10,10h17.917c1.104,0,2-0.896,2-2S46.021,82.375,44.917,82.375z M81,54.834c-1.104,0-2,0.896-2,2v19.541  c0,3.309-2.691,6-6,6H55.083c-1.104,0-2,0.896-2,2s0.896,2,2,2H73c5.514,0,10-4.486,10-10V56.834C83,55.729,82.104,54.834,81,54.834  z M55.083,17.625H73c3.309,0,6,2.691,6,6v19.709c0,1.104,0.896,2,2,2s2-0.896,2-2V23.625c0-5.514-4.486-10-10-10H55.083  c-1.104,0-2,0.896-2,2S53.979,17.625,55.083,17.625z M87.75,48H74.875v-2.166h-4V48H12.25c-1.104,0-2,0.896-2,2s0.896,2,2,2H27v23  h23v-4H31V52h56.75c1.104,0,2-0.896,2-2S88.854,48,87.75,48z M60.625,55.125H51.5v6.25h9.125V55.125z M74.875,53.625h-4V60.5h4  V53.625z M68.333,62v-6.75h-5.208v4h1.208V62H68.333z"/><text x="0" y="115" fill="#000000" font-size="5px" font-weight="bold" font-family="'Helvetica Neue', Helvetica, Arial-Unicode, Arial, Sans-serif">Created by iconomania</text><text x="0" y="120" fill="#000000" font-size="5px" font-weight="bold" font-family="'Helvetica Neue', Helvetica, Arial-Unicode, Arial, Sans-serif">from the Noun Project</text></svg>