<?xml version="1.0" encoding="UTF-8"?>
<svg width="20px" height="19px" viewBox="0 0 20 19" version="1.1" xmlns="http://www.w3.org/2000/svg" xmlns:xlink="http://www.w3.org/1999/xlink">
    <!-- Generator: Sketch 53.2 (72643) - https://sketchapp.com -->
    <title>Close + Expand</title>
    <desc>Created with Sketch.</desc>
    <g id="Page-1" stroke="none" stroke-width="1" fill="none" fill-rule="evenodd">
        <g id="Driver-App/SignUp/Personal-Photo-Camera" transform="translate(-30.000000, -43.000000)" fill="#FFFFFF">
            <g id="Close-+-Expand" transform="translate(30.000000, 43.000000)">
                <g id="Close">
                    <path d="M9.74957911,7.76632996 L17.1742003,0.341708755 C17.629812,-0.113902918 18.3685045,-0.113902918 18.8241161,0.341708755 C19.2797278,0.797320429 19.2797278,1.5360129 18.8241161,1.99162458 L11.3994949,9.41624578 L18.8241161,16.840867 C19.2797278,17.2964787 19.2797278,18.0351711 18.8241161,18.4907828 C18.3685045,18.9463945 17.629812,18.9463945 17.1742003,18.4907828 L9.74957911,11.0661616 L2.32495791,18.4907828 C1.86934624,18.9463945 1.13065376,18.9463945 0.675042089,18.4907828 C0.219430415,18.0351711 0.219430415,17.2964787 0.675042089,16.840867 L8.09966329,9.41624578 L0.675042089,1.99162458 C0.219430415,1.5360129 0.219430415,0.797320429 0.675042089,0.341708755 C1.13065376,-0.113902918 1.86934624,-0.113902918 2.32495791,0.341708755 L9.74957911,7.76632996 Z"></path>
                </g>
            </g>
        </g>
    </g>
</svg>