<?xml version="1.0" encoding="UTF-8"?>
<svg width="67px" height="67px" viewBox="0 0 67 67" version="1.1" xmlns="http://www.w3.org/2000/svg" xmlns:xlink="http://www.w3.org/1999/xlink">
    <!-- Generator: Sketch 53.2 (72643) - https://sketchapp.com -->
    <title>Face ID</title>
    <desc>Created with Sketch.</desc>
    <g id="Page-1" stroke="none" stroke-width="1" fill="none" fill-rule="evenodd">
        <g id="Driver-App/Login/Login-Info" transform="translate(-154.000000, -586.000000)" fill="#F1F1F1">
            <g id="Face-ID" transform="translate(15.000000, 526.000000)">
                <g transform="translate(139.000000, 60.000000)" id="Combined-Shape">
                    <path d="M20.3333333,23 C21.6219977,23 22.6666667,24.0446689 22.6666667,25.3333333 L22.6666667,30 C22.6666667,31.2886644 21.6219977,32.3333333 20.3333333,32.3333333 C19.0446689,32.3333333 18,31.2886644 18,30 L18,25.3333333 C18,24.0446689 19.0446689,23 20.3333333,23 Z M46.6666667,23 C47.9553311,23 49,24.0446689 49,25.3333333 L49,30 C49,31.2886644 47.9553311,32.3333333 46.6666667,32.3333333 C45.3780023,32.3333333 44.3333333,31.2886644 44.3333333,30 L44.3333333,25.3333333 C44.3333333,24.0446689 45.3780023,23 46.6666667,23 Z M22.7424814,48.891069 C22.0088028,48.335201 21.8646589,47.289817 22.4205269,46.5561384 C22.9763948,45.8224598 24.0217789,45.6783159 24.7554574,46.2341839 C27.2620212,48.1332697 30.4585523,49.3333333 33.3333333,49.3333333 C36.3578889,49.3333333 39.6841217,48.0346763 42.2296579,45.9854541 C42.9466666,45.4082436 43.9958386,45.5215725 44.5730491,46.2385812 C45.1502596,46.95559 45.0369307,48.0047619 44.3199219,48.5819724 C41.2094143,51.0860111 37.1609026,52.6666667 33.3333333,52.6666667 C29.6869562,52.6666667 25.7995183,51.207218 22.7424814,48.891069 Z M30.3333333,41.6666667 C29.4128588,41.6666667 28.6666667,40.9204746 28.6666667,40 C28.6666667,39.0795254 29.4128588,38.3333333 30.3333333,38.3333333 C32.5734398,38.3333333 33,37.7982041 33,35 L33,24.6666667 C33,23.7461921 33.7461921,23 34.6666667,23 C35.5871412,23 36.3333333,23.7461921 36.3333333,24.6666667 L36.3333333,35 C36.3333333,39.4942391 34.6016559,41.6666667 30.3333333,41.6666667 Z M3.33333333,18.3333333 C3.33333333,19.2538079 2.58714125,20 1.66666667,20 C0.746192084,20 0,19.2538079 0,18.3333333 L0,12.7768359 C0,9.00302264 0.349360997,7.19388292 1.35455305,5.31433719 C2.26521679,3.61154405 3.61154405,2.26521679 5.31433719,1.35455305 C7.19388292,0.349360997 9.00302264,0 12.7768359,0 L18.3333333,0 C19.2538079,0 20,0.746192084 20,1.66666667 C20,2.58714125 19.2538079,3.33333333 18.3333333,3.33333333 L12.7768359,3.33333333 C9.50623834,3.33333333 8.21695711,3.58230502 6.88633338,4.29393038 C5.76443516,4.89392812 4.89392812,5.76443516 4.29393038,6.88633338 C3.58230502,8.21695711 3.33333333,9.50623834 3.33333333,12.7768359 L3.33333333,18.3333333 Z M63.6666667,18.3333333 L63.6666667,12.7768359 C63.6666667,9.50623834 63.417695,8.21695711 62.7060696,6.88633338 C62.1060719,5.76443516 61.2355648,4.89392812 60.1136666,4.29393038 C58.7830429,3.58230502 57.4937617,3.33333333 54.2231641,3.33333333 L48.6666667,3.33333333 C47.7461921,3.33333333 47,2.58714125 47,1.66666667 C47,0.746192084 47.7461921,0 48.6666667,0 L54.2231641,0 C57.9969774,0 59.8061171,0.349360997 61.6856628,1.35455305 C63.3884559,2.26521679 64.7347832,3.61154405 65.6454469,5.31433719 C66.650639,7.19388292 67,9.00302264 67,12.7768359 L67,18.3333333 C67,19.2538079 66.2538079,20 65.3333333,20 C64.4128588,20 63.6666667,19.2538079 63.6666667,18.3333333 Z M3.33333333,48.6666667 L3.33333333,54.2231641 C3.33333333,57.4937617 3.58230502,58.7830429 4.29393038,60.1136666 C4.89392812,61.2355648 5.76443516,62.1060719 6.88633338,62.7060696 C8.21695711,63.417695 9.50623834,63.6666667 12.7768359,63.6666667 L18.3333333,63.6666667 C19.2538079,63.6666667 20,64.4128588 20,65.3333333 C20,66.2538079 19.2538079,67 18.3333333,67 L12.7768359,67 C9.00302264,67 7.19388292,66.650639 5.31433719,65.6454469 C3.61154405,64.7347832 2.26521679,63.3884559 1.35455305,61.6856628 C0.349360997,59.8061171 0,57.9969774 0,54.2231641 L0,48.6666667 C0,47.7461921 0.746192084,47 1.66666667,47 C2.58714125,47 3.33333333,47.7461921 3.33333333,48.6666667 Z M63.6666667,48.6666667 C63.6666667,47.7461921 64.4128588,47 65.3333333,47 C66.2538079,47 67,47.7461921 67,48.6666667 L67,54.2231641 C67,57.9969774 66.650639,59.8061171 65.6454469,61.6856628 C64.7347832,63.3884559 63.3884559,64.7347832 61.6856628,65.6454469 C59.8061171,66.650639 57.9969774,67 54.2231641,67 L48.6666667,67 C47.7461921,67 47,66.2538079 47,65.3333333 C47,64.4128588 47.7461921,63.6666667 48.6666667,63.6666667 L54.2231641,63.6666667 C57.4937617,63.6666667 58.7830429,63.417695 60.1136666,62.7060696 C61.2355648,62.1060719 62.1060719,61.2355648 62.7060696,60.1136666 C63.417695,58.7830429 63.6666667,57.4937617 63.6666667,54.2231641 L63.6666667,48.6666667 Z"></path>
                </g>
            </g>
        </g>
    </g>
</svg>