<?xml version="1.0" encoding="UTF-8"?>
<svg width="24px" height="19px" viewBox="0 0 24 19" version="1.1" xmlns="http://www.w3.org/2000/svg" xmlns:xlink="http://www.w3.org/1999/xlink">
    <!-- Generator: Sketch 53.2 (72643) - https://sketchapp.com -->
    <title>np_camera_817221_FFFFFF</title>
    <desc>Created with Sketch.</desc>
    <g id="Page-1" stroke="none" stroke-width="1" fill="none" fill-rule="evenodd">
        <g id="Driver-App/SignUp/Photo1" transform="translate(-336.000000, -53.000000)" fill="#FFFFFF">
            <g id="np_camera_817221_FFFFFF" transform="translate(336.000000, 53.000000)">
                <path d="M12.1318681,6.76430769 C9.96841319,6.76430769 8.21485714,8.51876044 8.21485714,10.6813187 C8.21485714,12.8447736 9.96828132,14.5983297 12.1318681,14.5983297 C14.2942945,14.5983297 16.0488791,12.8449055 16.0488791,10.6813187 C16.0488791,8.51889231 14.2944264,6.76430769 12.1318681,6.76430769 L12.1318681,6.76430769 Z" id="Path"></path>
                <path d="M21.6263736,3.56043956 L18.7777582,3.56043956 C18.3862681,3.56043956 17.9638945,3.25653626 17.8412835,2.88461538 L17.1046681,0.674795604 C16.9800105,0.30392967 16.5586549,0 16.1671648,0 L8.09630769,0 C7.70481758,0 7.28244396,0.303903297 7.15983297,0.675824176 L6.42321758,2.88564396 C6.29959121,3.25756484 5.87823297,3.56146813 5.48674286,3.56146813 L2.63707253,3.56043798 C1.33178901,3.56043798 0.263446154,4.62878084 0.263446154,5.93406435 L0.263446154,16.615383 C0.263446154,17.9206665 1.33178901,18.9890094 2.63707253,18.9890094 L21.6260835,18.9890094 C22.931367,18.9890094 23.9997099,17.9206665 23.9997099,16.615383 L23.9997099,5.93406435 C23.9997099,4.62878084 22.931367,3.56043798 21.6260835,3.56043798 L21.6263736,3.56043956 Z M12.1318681,16.6153846 C8.85362637,16.6153846 6.1978022,13.9595604 6.1978022,10.6813187 C6.1978022,7.40518681 8.85362637,4.74725275 12.1318681,4.74725275 C15.408,4.74725275 18.0659341,7.40518681 18.0659341,10.6813187 C18.0659341,13.9595604 15.408,16.6153846 12.1318681,16.6153846 Z M20.7950769,7.6770989 C20.2912879,7.6770989 19.8812835,7.2680967 19.8812835,6.76330549 C19.8812835,6.25951648 20.2923429,5.85054066 20.7950769,5.85054066 C21.2998945,5.85054066 21.7088703,6.25954286 21.7088703,6.76330549 C21.7099005,7.26709451 21.2998681,7.6770989 20.7950769,7.6770989 Z" id="Shape" fill-rule="nonzero"></path>
            </g>
        </g>
    </g>
</svg>